# xmcd
#
# Track frame offsets:
#	150
#	15083
#	32169
#	43363
#	60238
#	79825
#	94061
#	107683
#	123314
#	140138
#	157742
#	172813
#
# Disc length: 2525 seconds
#
# Revision: 0
# Processed by: cddbd v1.5.2PL0 Copyright (c) Steve Scherf et al.
# Submitted via: VUPlayer 2.49
#
DISCID=8b09db0c
DTITLE=Ingrid Gerdes - Shed
DYEAR=2010
DGENRE=Soul
TTITLE0=Your Boyfriend
TTITLE1=Trying To Remember
TTITLE2=Move
TTITLE3=Want Me Too
TTITLE4=His Game
TTITLE5=Wicked
TTITLE6=Better Off
TTITLE7=Shed
TTITLE8=Can't Take Anymore
TTITLE9=Other Woman
TTITLE10=They Always Come Back
TTITLE11=Your Prescence
EXTD=
EXTT0=
EXTT1=
EXTT2=
EXTT3=
EXTT4=
EXTT5=
EXTT6=
EXTT7=
EXTT8=
EXTT9=
EXTT10=
EXTT11=
PLAYORDER=
